<?xml version="1.0" standalone="no"?><!DOCTYPE svg PUBLIC "-//W3C//DTD SVG 1.1//EN" "http://www.w3.org/Graphics/SVG/1.1/DTD/svg11.dtd"><svg t="1588832979656" class="icon" viewBox="0 0 1026 1024" version="1.1" xmlns="http://www.w3.org/2000/svg" p-id="15746" xmlns:xlink="http://www.w3.org/1999/xlink" width="200.390625" height="200"><defs><style type="text/css"></style></defs><path d="M942.746975 788.96196c10.005648-15.005913 17.508604-28.763039 26.265465-45.01262 2.497573-3.751478 3.74636-7.502956 5.000265-11.249317 6.25417-12.503221 11.249317-25.016678 16.259817-37.514781 2.497573-5.000265 3.74636-10.005648 6.249052-16.249582 3.751478-12.508339 7.502956-23.762774 11.249316-36.265995 1.253905-6.249052 3.756596-11.249317 5.010501-17.503486 2.492455-12.503221 4.995147-26.255229 7.497839-38.75845 1.253905-6.25417 2.502691-11.249317 2.502691-16.254699 2.497573-18.757391 3.74636-37.509664 3.74636-57.515842C1026.523163 230.063365 796.464916 0 513.885975 0 230.058247 0 0 230.063365 0 512.637188c0 18.757391 1.248787 38.75845 3.751478 57.515842 1.248787 6.25417 1.248787 11.249317 2.497574 17.503486 1.253905 11.254434 3.751478 25.006442 6.254169 37.509663 1.248787 6.25417 2.502691 12.503221 5.000265 17.503486 3.751478 12.503221 7.502956 25.01156 11.254435 36.265995 1.248787 4.995147 3.74636 10.00053 6.249051 16.249582 5.005383 12.498103 10.005648 26.260347 16.259818 37.514781 1.248787 3.74636 3.74636 7.497838 5.000265 11.249317a419.889184 419.889184 0 0 0 26.260347 45.01262l1.248786 1.248787c91.274027 141.281794 248.815638 233.814843 428.866118 233.814843s337.592091-93.776718 428.861-233.814843l1.243669-1.248787zM512.637188 245.06416c103.777248 0 188.802223 85.024975 188.802223 188.802223-1.243669 103.777248-85.019857 187.553436-188.802223 187.553436s-188.802223-85.024975-188.802223-188.807341c0-102.523343 85.024975-187.548318 188.802223-187.548318zM201.305444 832.725793c53.764363-122.529521 175.045097-203.808136 311.331744-203.808135 136.286647 0 257.567381 81.278615 311.331744 203.808135-81.273497 78.775924-191.299797 126.280999-311.331744 126.280999-121.280734 0-231.312152-47.505075-311.331744-126.280999z" p-id="15747"></path></svg>