<?xml version="1.0" standalone="no"?><!DOCTYPE svg PUBLIC "-//W3C//DTD SVG 1.1//EN" "http://www.w3.org/Graphics/SVG/1.1/DTD/svg11.dtd"><svg t="1589334408237" class="icon" viewBox="0 0 1216 1024" version="1.1" xmlns="http://www.w3.org/2000/svg" p-id="15862" xmlns:xlink="http://www.w3.org/1999/xlink" width="237.5" height="200"><defs><style type="text/css"></style></defs><path d="M218.955294 15.661176m61.44 0l742.4 0q61.44 0 61.44 61.44l0 2.409412q0 61.44-61.44 61.44l-742.4 0q-61.44 0-61.44-61.44l0-2.409412q0-61.44 61.44-61.44Z" p-id="15863"></path><path d="M0 78.305882a78.305882 77.402353 90 1 0 154.804706 0 78.305882 77.402353 90 1 0-154.804706 0Z" p-id="15864"></path><path d="M218.955294 419.237647m61.44 0l742.4 0q61.44 0 61.44 61.44l0 2.409412q0 61.44-61.44 61.44l-742.4 0q-61.44 0-61.44-61.44l0-2.409412q0-61.44 61.44-61.44Z" p-id="15865"></path><path d="M0 481.882353a78.305882 77.402353 90 1 0 154.804706 0 78.305882 77.402353 90 1 0-154.804706 0Z" p-id="15866"></path><path d="M218.955294 822.512941m61.44 0l742.4 0q61.44 0 61.44 61.44l0 2.409412q0 61.44-61.44 61.44l-742.4 0q-61.44 0-61.44-61.44l0-2.409412q0-61.44 61.44-61.44Z" p-id="15867"></path><path d="M0 885.458824a78.305882 77.402353 90 1 0 154.804706 0 78.305882 77.402353 90 1 0-154.804706 0Z" p-id="15868"></path></svg>